<?xml version="1.0" encoding="utf-8"?>
<!-- Generator: Adobe Illustrator 25.4.1, SVG Export Plug-In . SVG Version: 6.00 Build 0)  -->
<svg version="1.1" id="图层_1" xmlns="http://www.w3.org/2000/svg" xmlns:xlink="http://www.w3.org/1999/xlink" x="0px" y="0px"
	 viewBox="0 0 128 128" style="enable-background:new 0 0 128 128;" xml:space="preserve">
<style type="text/css">
	.st0{fill:#2e2e33;}
	.st1{enable-background:new    ;}
	.st2{fill:#DADADB;}
</style>
<path class="st0" d="M128,64l0,5.4l0,3.2l-0.1,2.7l-0.1,2.4l-0.1,2.2l-0.1,2l-0.2,1.9l-0.2,1.8l-0.2,1.7l-0.2,1.7l-0.3,1.6l-0.3,1.5
	l-0.3,1.5l-0.3,1.4l-0.4,1.4l-0.4,1.4l-0.4,1.3l-0.5,1.3l-0.5,1.2l-0.5,1.2l-0.5,1.2l-0.6,1.1l-0.6,1.1l-0.6,1.1l-0.6,1l-0.7,1
	l-0.7,1l-0.7,1l-0.7,0.9l-0.8,0.9l-0.8,0.9l-0.8,0.8l-0.8,0.8l-0.9,0.8l-0.9,0.8l-0.9,0.7l-1,0.7l-1,0.7l-1,0.7l-1,0.6l-1.1,0.6
	l-1.1,0.6l-1.1,0.6l-1.2,0.5l-1.2,0.5l-1.2,0.5l-1.3,0.5l-1.3,0.4l-1.4,0.4l-1.4,0.4l-1.4,0.3l-1.5,0.3l-1.5,0.3l-1.6,0.3l-1.7,0.2
	l-1.7,0.2l-1.8,0.2l-1.9,0.2l-2,0.1l-2.2,0.1l-2.4,0.1l-2.7,0.1l-3.2,0l-5.4,0l-5.4,0l-3.2,0l-2.7-0.1l-2.4-0.1l-2.2-0.1l-2-0.1
	l-1.9-0.2l-1.8-0.2l-1.7-0.2l-1.7-0.2l-1.6-0.3l-1.5-0.3l-1.5-0.3l-1.4-0.3l-1.4-0.4l-1.4-0.4l-1.3-0.4l-1.3-0.5l-1.2-0.5l-1.2-0.5
	l-1.2-0.5l-1.1-0.6l-1.1-0.6l-1.1-0.6l-1-0.6l-1-0.7l-1-0.7l-1-0.7l-0.9-0.7l-0.9-0.8l-0.9-0.8l-0.8-0.8l-0.8-0.8l-0.8-0.9l-0.8-0.9
	l-0.7-0.9l-0.7-1l-0.7-1l-0.7-1l-0.6-1l-0.6-1.1l-0.6-1.1l-0.6-1.1l-0.5-1.2l-0.5-1.2l-0.5-1.2L3.7,99l-0.4-1.3l-0.4-1.4L2.5,95
	l-0.3-1.4l-0.3-1.5l-0.3-1.5l-0.3-1.6L1,87.3l-0.2-1.7l-0.2-1.8l-0.2-1.9l-0.1-2l-0.1-2.2l-0.1-2.4l-0.1-2.7l0-3.2L0,64l0-5.4l0-3.2
	l0.1-2.7l0.1-2.4l0.1-2.2l0.1-2l0.2-1.9l0.2-1.8L1,40.7l0.2-1.7l0.3-1.6l0.3-1.5l0.3-1.5L2.5,33l0.4-1.4l0.4-1.4L3.7,29l0.5-1.3
	l0.5-1.2l0.5-1.2l0.5-1.2l0.6-1.1l0.6-1.1l0.6-1.1l0.6-1l0.7-1l0.7-1l0.7-1l0.7-0.9l0.8-0.9l0.8-0.9l0.8-0.8l0.8-0.8l0.9-0.8
	l0.9-0.8l0.9-0.7l1-0.7l1-0.7l1-0.7l1-0.6l1.1-0.6l1.1-0.6l1.1-0.6l1.2-0.5l1.2-0.5l1.2-0.5L29,3.7l1.3-0.4l1.4-0.4L33,2.5l1.4-0.3
	l1.5-0.3l1.5-0.3l1.6-0.3L40.7,1l1.7-0.2l1.8-0.2l1.9-0.2l2-0.1l2.2-0.1l2.4-0.1l2.7-0.1l3.2,0L64,0l5.4,0l3.2,0l2.7,0.1l2.4,0.1
	l2.2,0.1l2,0.1l1.9,0.2l1.8,0.2L87.3,1l1.7,0.2l1.6,0.3l1.5,0.3l1.5,0.3L95,2.5l1.4,0.4l1.4,0.4L99,3.7l1.3,0.5l1.2,0.5l1.2,0.5
	l1.2,0.5l1.1,0.6l1.1,0.6l1.1,0.6l1,0.6l1,0.7l1,0.7l1,0.7l0.9,0.7l0.9,0.8l0.9,0.8l0.8,0.8l0.8,0.8l0.8,0.9l0.8,0.9l0.7,0.9l0.7,1
	l0.7,1l0.7,1l0.6,1l0.6,1.1l0.6,1.1l0.6,1.1l0.5,1.2l0.5,1.2l0.5,1.2l0.5,1.3l0.4,1.3l0.4,1.4l0.4,1.4l0.3,1.4l0.3,1.5l0.3,1.5
	l0.3,1.6l0.2,1.7l0.2,1.7l0.2,1.8l0.2,1.9l0.1,2l0.1,2.2l0.1,2.4l0.1,2.7l0,3.2L128,64z"/>
<g class="st1">
	<path class="st2" d="M40.4,64.9c0,2.5,1.1,3.7,3.3,3.7c2.4,0,4.5-1.4,6.4-4.3c0.5-2.2,1.4-6,2.8-11.4c1.4-5.4,2.2-8.7,2.4-10
		c0.5-2.4,1.1-4.4,1.8-5.8c0.7-1.4,1.5-2.2,2.6-2.2c1.9,0,3.3,0.4,4.4,1.3c1,0.8,1.5,2.4,1.5,4.6s-0.7,4.7-2.2,7.4
		c-0.2,1.5-0.5,3-0.8,4.6c-0.3,1.6-0.7,3.7-1.1,6.3c-0.5,2.6-1.3,7-2.5,13.2c4.9-2,7.8-3.6,8.9-4.9c1.1-1.3,1.9-1.9,2.6-1.9
		c0.6,0,0.9,0.6,0.9,1.9c0,1.3-0.4,2.4-1.1,3.3c-0.8,0.9-2,2-3.6,3.2c-1.6,1.2-4.6,2.7-8.9,4.6c-2.1,9.1-6.1,14.9-11.7,17.3
		c-1.6,0.7-3.2,1-4.9,1c-3.7,0-6.7-0.7-8.8-2.1c-2.5-1.6-3.8-3.9-3.8-7c0-2.8,4.1-5.7,12.4-8.8c4.1-1.5,6.6-2.4,7.5-2.7
		c0-1,0.1-2.3,0.3-3.8c-2.6,1.4-5.3,2.2-8.4,2.2s-5.3-0.9-6.8-2.8c-1.5-1.8-2.3-4.4-2.3-7.6c0-1.5,0.3-3.2,0.8-4.9
		c0.5-1.7,1.1-3.5,1.7-5.3c0.6-1.8,1.2-3.6,1.7-5.3c0.5-1.7,0.8-3.3,0.8-4.8c0-2.8-0.8-4.1-2.5-4.1c-0.6,0-1.1,0.2-1.6,0.5
		c-0.5,0.3-0.9,0.7-1.4,1.1c-0.5,0.4-1,0.7-1.5,1.1c-0.5,0.3-1.1,0.5-1.7,0.5c-0.6,0-1-0.6-1-1.7c0-2.3,1.1-4.1,3.2-5.6
		c2-1.5,4.4-2.2,7.2-2.2c2.8,0,4.9,1,6.3,3.1c1.1,1.5,1.6,3.3,1.6,5.2s-0.2,3.8-0.7,5.6c-0.5,1.8-0.9,3.6-1.5,5.5
		c-0.5,1.9-1,3.8-1.5,5.8C40.6,60.8,40.4,62.8,40.4,64.9z M42.6,91.4c1.6-1.4,3-4.2,4.2-8.7c-2.2,0.8-4,1.4-5.6,1.9
		c-1.5,0.5-2.8,0.9-3.8,1.4s-1.7,0.8-2.2,1.2c-0.5,0.4-0.7,0.9-0.7,1.4c0,1,0.6,1.9,1.9,2.5c1.2,0.7,2.4,1,3.5,1
		C41.2,92.2,42,91.9,42.6,91.4z"/>
	<path class="st2" d="M75.4,59.7C73,60,71,60.2,69.5,60.2c-0.5,0-0.8-0.2-0.8-0.6c0-0.9,0.6-1.9,1.9-3s3.4-2,6.3-2.8
		c1.3-4.7,2.8-9,4.5-12.9c-4.1,0.2-7.5,1.6-10.1,4.1c-0.7,0.7-1.2,1.2-1.6,1.5c-0.4,0.4-0.8,0.6-1.1,0.6c-0.3,0-0.6-0.2-0.9-0.7
		c-0.3-0.5-0.4-1.2-0.4-2c0-3.2,2.2-5.7,6.4-7.7c4.2-2,9.5-2.9,15.7-2.9L108,34c1.1,0,1.7,0.4,1.7,1.3c0,0.2-0.2,0.7-0.5,1.3
		c-0.3,0.6-0.6,1.3-0.9,2.1c-0.5,1.5-1.7,2.2-3.5,2.2h-2l-8.2-0.1h-4.8c-0.3,2.3-1.3,6.2-3,11.5l11.3,0.2c0.7,0,1,0.4,1,1.2
		c0,0.2-0.1,0.7-0.3,1.3c-0.2,0.6-0.4,1.3-0.6,1.9c-0.3,1.4-1,2-2.1,2l-9.4-0.4H86c-0.2,0-0.5,0-0.9,0.1C83,66.5,82,72.7,82,77.3
		c0,2.4-2.4,3.6-7.1,3.6c-1,0-1.6-0.5-1.8-1.6c-0.2-1.1-0.3-2.4-0.3-4.2C72.7,71.5,73.6,66.3,75.4,59.7z"/>
</g>
</svg>
